<svg width="153" height="35" viewBox="0 0 153 35" fill="none" xmlns="http://www.w3.org/2000/svg">
<g clip-path="url(#clip0)">
<path d="M0 34.2659V1.4375H6.59289V15.6066L20.0395 1.4375H28.2469L12.835 17.0751L29.7715 34.2659H20.822L6.59289 19.3224V34.2659H0Z" fill="#14487F"/>
<path d="M103.605 34.2659V1.4375H110.284V28.8679H125.3V34.2659H103.605Z" fill="#14487F"/>
<path d="M130.801 34.2659V1.4375H137.479V28.8679H152.5V34.2659H130.801Z" fill="#14487F"/>
<path d="M44.0579 6.40364H40.3477V17.6357H43.8375C48.4066 17.6357 50.6912 15.7637 50.6912 12.0197C50.6912 8.27564 48.4801 6.40364 44.0579 6.40364ZM34.0156 34.2701V1.44623H44.9303C47.1832 1.38961 49.4204 1.83206 51.4782 2.74121C53.2231 3.52826 54.6961 4.8048 55.7146 6.41254C56.7361 8.12426 57.2504 10.0858 57.1987 12.0731C57.2372 13.9487 56.7044 15.7923 55.6696 17.3642C54.6682 18.8595 53.3207 20.0967 51.7391 20.9732L60.4726 34.279H52.9983L46.0096 22.6153H40.3477V34.279L34.0156 34.2701Z" fill="#14487F"/>
<path d="M63.1406 12.1485L89.872 2.97241C87.6325 1.48059 85.0777 0.515701 82.4032 0.151628C79.7287 -0.212445 77.0055 0.0339596 74.4421 0.871971C71.801 1.75082 69.4038 3.228 67.4417 5.18578C65.4796 7.14357 64.0068 9.52782 63.1406 12.1485Z" fill="#43B049"/>
<path d="M62.3633 16.0469L83.9814 34.5548C83.9814 34.5548 75.0274 37.0602 67.7914 30.1848C65.868 28.3854 64.38 26.1793 63.4385 23.7313C62.4971 21.2833 62.1265 18.6564 62.3543 16.0469" fill="#14487F"/>
<path d="M92.6868 5.30859L87.2227 33.4866C89.8194 32.3362 92.0975 30.5831 93.8637 28.3759C95.6299 26.1687 96.8321 23.5726 97.3684 20.8077C97.9046 18.0428 97.759 15.1907 96.9441 12.4934C96.1291 9.79602 94.6687 7.33294 92.6868 5.31305" fill="#14487F"/>
</g>
<defs>
<clipPath id="clip0">
<rect width="152.5" height="35" fill="white"/>
</clipPath>
</defs>
</svg>
