<svg width="1440" height="129" viewBox="0 0 1440 129" fill="none" xmlns="http://www.w3.org/2000/svg">
<rect width="1440" height="129" fill="white"/>
<rect x="1037" y="22.5" width="18" height="12" stroke="#001424"/>
<path d="M1037.5 23L1046 30L1054.5 23" stroke="#001424"/>
<path d="M1066.27 33.144C1065.16 33.144 1064.21 32.9093 1063.42 32.44C1062.63 31.9707 1062.03 31.304 1061.6 30.44C1061.18 29.576 1060.98 28.5467 1060.98 27.352C1060.98 26.168 1061.18 25.144 1061.6 24.28C1062.03 23.416 1062.63 22.7493 1063.42 22.28C1064.21 21.8107 1065.16 21.576 1066.27 21.576C1067.05 21.576 1067.77 21.6987 1068.42 21.944C1069.08 22.1893 1069.64 22.5467 1070.1 23.016L1069.58 24.088C1069.09 23.6293 1068.58 23.2987 1068.05 23.096C1067.53 22.8827 1066.94 22.776 1066.3 22.776C1065.03 22.776 1064.06 23.176 1063.39 23.976C1062.72 24.776 1062.38 25.9013 1062.38 27.352C1062.38 28.8133 1062.72 29.944 1063.39 30.744C1064.06 31.544 1065.03 31.944 1066.3 31.944C1066.94 31.944 1067.53 31.8427 1068.05 31.64C1068.58 31.4267 1069.09 31.0907 1069.58 30.632L1070.1 31.704C1069.64 32.1627 1069.08 32.52 1068.42 32.776C1067.77 33.0213 1067.05 33.144 1066.27 33.144ZM1074.65 33.144C1073.89 33.144 1073.24 32.9787 1072.68 32.648C1072.13 32.3173 1071.7 31.8533 1071.39 31.256C1071.09 30.648 1070.94 29.9333 1070.94 29.112C1070.94 28.2907 1071.09 27.5813 1071.39 26.984C1071.7 26.376 1072.13 25.9067 1072.68 25.576C1073.24 25.2453 1073.89 25.08 1074.65 25.08C1075.4 25.08 1076.05 25.2453 1076.6 25.576C1077.17 25.9067 1077.6 26.376 1077.9 26.984C1078.21 27.5813 1078.36 28.2907 1078.36 29.112C1078.36 29.9333 1078.21 30.648 1077.9 31.256C1077.6 31.8533 1077.17 32.3173 1076.6 32.648C1076.05 32.9787 1075.4 33.144 1074.65 33.144ZM1074.65 32.104C1075.38 32.104 1075.96 31.848 1076.4 31.336C1076.83 30.8133 1077.05 30.072 1077.05 29.112C1077.05 28.1413 1076.83 27.4 1076.4 26.888C1075.96 26.376 1075.38 26.12 1074.65 26.12C1073.92 26.12 1073.33 26.376 1072.89 26.888C1072.46 27.4 1072.25 28.1413 1072.25 29.112C1072.25 30.072 1072.46 30.8133 1072.89 31.336C1073.33 31.848 1073.92 32.104 1074.65 32.104ZM1080.31 33V25.224H1081.57V26.552C1081.83 26.0613 1082.19 25.6933 1082.66 25.448C1083.13 25.2027 1083.66 25.08 1084.25 25.08C1086.09 25.08 1087.01 26.104 1087.01 28.152V33H1085.72V28.232C1085.72 27.5067 1085.57 26.9787 1085.29 26.648C1085.01 26.3067 1084.56 26.136 1083.94 26.136C1083.23 26.136 1082.66 26.36 1082.23 26.808C1081.81 27.2453 1081.61 27.832 1081.61 28.568V33H1080.31ZM1092.52 33.144C1091.61 33.144 1090.92 32.904 1090.46 32.424C1090 31.9333 1089.77 31.2293 1089.77 30.312V26.232H1088.25V25.224H1089.77V22.84H1091.07V25.224H1093.53V26.232H1091.07V30.184C1091.07 30.792 1091.2 31.256 1091.45 31.576C1091.71 31.8853 1092.12 32.04 1092.7 32.04C1092.87 32.04 1093.04 32.0187 1093.21 31.976C1093.38 31.9333 1093.54 31.8907 1093.68 31.848L1093.9 32.84C1093.76 32.9147 1093.56 32.984 1093.29 33.048C1093.02 33.112 1092.77 33.144 1092.52 33.144ZM1097.45 33.144C1096.91 33.144 1096.43 33.0427 1096.01 32.84C1095.59 32.6267 1095.26 32.3387 1095.01 31.976C1094.77 31.6133 1094.65 31.208 1094.65 30.76C1094.65 30.1947 1094.79 29.7467 1095.08 29.416C1095.38 29.0853 1095.86 28.8507 1096.53 28.712C1097.22 28.5627 1098.14 28.488 1099.32 28.488H1099.83V27.992C1099.83 27.3307 1099.69 26.856 1099.41 26.568C1099.15 26.2693 1098.71 26.12 1098.12 26.12C1097.65 26.12 1097.19 26.1893 1096.76 26.328C1096.32 26.456 1095.87 26.6693 1095.41 26.968L1094.97 26.024C1095.37 25.736 1095.86 25.5067 1096.44 25.336C1097.02 25.1653 1097.58 25.08 1098.12 25.08C1099.12 25.08 1099.86 25.3253 1100.34 25.816C1100.83 26.3067 1101.08 27.0693 1101.08 28.104V33H1099.86V31.656C1099.66 32.1147 1099.34 32.4773 1098.92 32.744C1098.5 33.0107 1098.01 33.144 1097.45 33.144ZM1097.65 32.168C1098.29 32.168 1098.82 31.9493 1099.22 31.512C1099.63 31.064 1099.83 30.4987 1099.83 29.816V29.336H1099.33C1098.47 29.336 1097.79 29.3787 1097.29 29.464C1096.79 29.5387 1096.45 29.6773 1096.25 29.88C1096.05 30.072 1095.96 30.3387 1095.96 30.68C1095.96 31.1173 1096.11 31.4747 1096.41 31.752C1096.71 32.0293 1097.13 32.168 1097.65 32.168ZM1106.78 33.144C1106 33.144 1105.33 32.9787 1104.76 32.648C1104.2 32.3067 1103.76 31.832 1103.45 31.224C1103.15 30.6053 1103 29.8853 1103 29.064C1103 27.8267 1103.34 26.856 1104.01 26.152C1104.68 25.4373 1105.6 25.08 1106.78 25.08C1107.26 25.08 1107.73 25.1653 1108.2 25.336C1108.67 25.5067 1109.06 25.7467 1109.37 26.056L1108.92 27C1108.61 26.7013 1108.27 26.4827 1107.9 26.344C1107.53 26.2053 1107.19 26.136 1106.86 26.136C1106.05 26.136 1105.42 26.392 1104.99 26.904C1104.55 27.4053 1104.33 28.1307 1104.33 29.08C1104.33 30.008 1104.55 30.744 1104.99 31.288C1105.42 31.8213 1106.05 32.088 1106.86 32.088C1107.19 32.088 1107.53 32.0187 1107.9 31.88C1108.27 31.7413 1108.61 31.5173 1108.92 31.208L1109.37 32.152C1109.06 32.4613 1108.67 32.7067 1108.19 32.888C1107.72 33.0587 1107.25 33.144 1106.78 33.144ZM1114.01 33.144C1113.09 33.144 1112.4 32.904 1111.94 32.424C1111.49 31.9333 1111.26 31.2293 1111.26 30.312V26.232H1109.74V25.224H1111.26V22.84H1112.55V25.224H1115.02V26.232H1112.55V30.184C1112.55 30.792 1112.68 31.256 1112.94 31.576C1113.19 31.8853 1113.61 32.04 1114.18 32.04C1114.35 32.04 1114.53 32.0187 1114.7 31.976C1114.87 31.9333 1115.02 31.8907 1115.16 31.848L1115.38 32.84C1115.25 32.9147 1115.04 32.984 1114.78 33.048C1114.51 33.112 1114.25 33.144 1114.01 33.144ZM1123.34 33.144C1121.48 33.144 1120.54 32.1147 1120.54 30.056V25.224H1121.84V30.04C1121.84 30.7333 1121.98 31.2453 1122.26 31.576C1122.54 31.9067 1122.99 32.072 1123.6 32.072C1124.26 32.072 1124.8 31.8533 1125.22 31.416C1125.63 30.968 1125.84 30.376 1125.84 29.64V25.224H1127.14V33H1125.87V31.688C1125.63 32.1573 1125.28 32.52 1124.83 32.776C1124.39 33.0213 1123.9 33.144 1123.34 33.144ZM1132.18 33.144C1131.58 33.144 1131 33.0587 1130.46 32.888C1129.91 32.7173 1129.46 32.4773 1129.11 32.168L1129.53 31.256C1129.91 31.5653 1130.33 31.7947 1130.79 31.944C1131.26 32.0827 1131.74 32.152 1132.22 32.152C1132.82 32.152 1133.28 32.04 1133.59 31.816C1133.9 31.592 1134.06 31.288 1134.06 30.904C1134.06 30.6053 1133.95 30.3707 1133.75 30.2C1133.55 30.0187 1133.23 29.88 1132.79 29.784L1131.34 29.464C1130.01 29.176 1129.35 28.4933 1129.35 27.416C1129.35 26.712 1129.63 26.1467 1130.18 25.72C1130.75 25.2933 1131.49 25.08 1132.39 25.08C1132.93 25.08 1133.43 25.1653 1133.91 25.336C1134.4 25.496 1134.81 25.736 1135.13 26.056L1134.7 26.968C1134.39 26.68 1134.02 26.4613 1133.61 26.312C1133.2 26.152 1132.8 26.072 1132.39 26.072C1131.79 26.072 1131.34 26.1893 1131.03 26.424C1130.72 26.6587 1130.57 26.968 1130.57 27.352C1130.57 27.9493 1130.96 28.3333 1131.75 28.504L1133.21 28.808C1133.89 28.9573 1134.41 29.1973 1134.76 29.528C1135.11 29.848 1135.29 30.2853 1135.29 30.84C1135.29 31.5547 1135.01 32.12 1134.44 32.536C1133.87 32.9413 1133.12 33.144 1132.18 33.144Z" fill="#001424"/>
<path d="M1175.91 31.2211C1175.93 31.2075 1175.94 31.196 1175.95 31.1866C1176.13 31.0681 1176.26 31.0974 1176.34 31.133C1176.39 31.1563 1176.44 31.1889 1176.47 31.2175C1176.49 31.2313 1176.5 31.2427 1176.51 31.2492L1176.51 31.2521L1178.44 33.6547L1178.45 33.6641L1178.46 33.6731C1178.54 33.7619 1178.55 33.8228 1178.56 33.8652C1178.56 33.9145 1178.54 34.0099 1178.43 34.1632C1178.33 34.305 1178.09 34.5092 1177.84 34.7001C1177.73 34.7898 1177.62 34.8678 1177.54 34.9234C1177.5 34.9511 1177.47 34.9731 1177.44 34.9879L1177.42 35.0046L1177.41 35.0086L1177.41 35.0095L1177.41 35.0095L1177.41 35.0096L1177.41 35.0096L1177.41 35.0096L1177.41 35.0135L1177.4 35.0176C1176.92 35.3518 1176.45 35.5556 1175.94 35.5556C1175.79 35.5556 1175.64 35.5382 1175.48 35.5028L1175.48 35.5026L1175.47 35.5001C1175.02 35.4101 1174.44 35.1484 1173.72 34.6362C1172.79 33.9704 1171.85 32.9022 1171.12 31.9766C1170.77 31.518 1170.47 31.1023 1170.26 30.8016C1170.15 30.6513 1170.07 30.53 1170.02 30.4467C1169.99 30.405 1169.97 30.3729 1169.95 30.3514L1169.94 30.3273L1169.93 30.3215L1169.93 30.3213L1169.93 30.3213L1169.93 30.321L1169.93 30.3202L1169.93 30.32L1169.93 30.32L1169.93 30.3198L1169.93 30.3139L1169.91 30.2894C1169.9 30.2676 1169.88 30.2348 1169.85 30.1919C1169.8 30.1061 1169.72 29.9803 1169.63 29.8215C1169.45 29.5036 1169.19 29.0552 1168.93 28.5336C1168.39 27.4811 1167.81 26.1671 1167.6 25.0367L1167.6 25.0367L1167.6 25.03C1167.37 23.9239 1167.42 23.1805 1167.6 22.646C1167.79 22.1204 1168.13 21.7446 1168.6 21.4051L1168.61 21.3973L1168.62 21.3889L1168.62 21.3889L1168.62 21.389L1168.63 21.3818C1168.76 21.2712 1168.85 21.191 1168.96 21.129L1168.98 21.1185L1168.99 21.1065L1168.99 21.1065L1168.99 21.1065L1168.99 21.1064L1168.99 21.1064L1168.99 21.1055L1169 21.1013L1169.02 21.0839C1169.05 21.0686 1169.08 21.0462 1169.12 21.0189C1169.2 20.964 1169.31 20.8901 1169.44 20.8134C1169.71 20.6485 1169.97 20.5111 1170.13 20.4759L1170.14 20.4738L1170.15 20.4714C1170.32 20.4259 1170.39 20.4487 1170.42 20.4627C1170.45 20.4769 1170.5 20.5143 1170.56 20.6319L1170.56 20.6319L1170.56 20.6424L1171.92 23.4278L1171.92 23.4321C1171.93 23.4409 1171.93 23.4569 1171.94 23.4784C1171.95 23.5228 1171.96 23.5828 1171.96 23.6481C1171.96 23.7608 1171.93 23.9089 1171.72 24.0497C1171.64 24.1044 1171.53 24.1657 1171.38 24.2382C1171.33 24.2644 1171.26 24.2955 1171.19 24.3281C1171.1 24.3732 1171 24.4214 1170.91 24.4634C1170.76 24.5418 1170.59 24.6324 1170.44 24.7352C1170.32 24.8235 1170.16 24.9563 1170.07 25.1444C1170.07 25.1465 1170.07 25.1487 1170.07 25.1508C1170.05 25.1821 1170.03 25.2207 1170.02 25.267C1169.98 25.3604 1169.95 25.4809 1169.95 25.6312C1169.94 25.9308 1170.01 26.3342 1170.27 26.8707L1170.28 26.8803L1170.28 26.8897C1170.44 27.1864 1170.65 27.5137 1170.84 27.8189C1170.88 27.8805 1170.92 27.9412 1170.96 28.0005C1171.15 28.3026 1171.32 28.5773 1171.45 28.7764C1171.52 28.8761 1171.57 28.9571 1171.61 29.0132L1171.65 29.0781L1171.66 29.0919L1172.91 31.1709L1172.92 31.1733L1172.92 31.1874C1172.93 31.1989 1172.94 31.2146 1172.95 31.2338C1172.98 31.2721 1173.01 31.3249 1173.06 31.3859C1173.14 31.5059 1173.27 31.6675 1173.43 31.8149C1173.59 31.9581 1173.8 32.116 1174.07 32.1841C1174.35 32.2583 1174.66 32.2167 1174.95 32.0032C1175.3 31.7417 1175.55 31.5333 1175.72 31.3888C1175.81 31.3165 1175.87 31.2601 1175.91 31.2211Z" stroke="#001424" stroke-width="0.888889"/>
<path d="M1188.39 33V21.72H1189.7V26.712H1196.47V21.72H1197.78V33H1196.47V27.848H1189.7V33H1188.39ZM1203.62 33.144C1202.86 33.144 1202.21 32.9787 1201.65 32.648C1201.1 32.3173 1200.67 31.8533 1200.36 31.256C1200.06 30.648 1199.91 29.9333 1199.91 29.112C1199.91 28.2907 1200.06 27.5813 1200.36 26.984C1200.67 26.376 1201.1 25.9067 1201.65 25.576C1202.21 25.2453 1202.86 25.08 1203.62 25.08C1204.37 25.08 1205.02 25.2453 1205.57 25.576C1206.14 25.9067 1206.57 26.376 1206.87 26.984C1207.18 27.5813 1207.33 28.2907 1207.33 29.112C1207.33 29.9333 1207.18 30.648 1206.87 31.256C1206.57 31.8533 1206.14 32.3173 1205.57 32.648C1205.02 32.9787 1204.37 33.144 1203.62 33.144ZM1203.62 32.104C1204.35 32.104 1204.93 31.848 1205.36 31.336C1205.8 30.8133 1206.02 30.072 1206.02 29.112C1206.02 28.1413 1205.8 27.4 1205.36 26.888C1204.93 26.376 1204.35 26.12 1203.62 26.12C1202.88 26.12 1202.3 26.376 1201.86 26.888C1201.43 27.4 1201.22 28.1413 1201.22 29.112C1201.22 30.072 1201.43 30.8133 1201.86 31.336C1202.3 31.848 1202.88 32.104 1203.62 32.104ZM1212.32 33.144C1211.4 33.144 1210.72 32.904 1210.26 32.424C1209.8 31.9333 1209.57 31.2293 1209.57 30.312V26.232H1208.05V25.224H1209.57V22.84H1210.86V25.224H1213.33V26.232H1210.86V30.184C1210.86 30.792 1210.99 31.256 1211.25 31.576C1211.5 31.8853 1211.92 32.04 1212.5 32.04C1212.67 32.04 1212.84 32.0187 1213.01 31.976C1213.18 31.9333 1213.33 31.8907 1213.47 31.848L1213.7 32.84C1213.56 32.9147 1213.36 32.984 1213.09 33.048C1212.82 33.112 1212.57 33.144 1212.32 33.144ZM1217.18 33.144C1216.39 33.144 1215.79 32.9147 1215.39 32.456C1214.99 31.9867 1214.79 31.3093 1214.79 30.424V21.72H1216.09V30.328C1216.09 31.4693 1216.54 32.04 1217.45 32.04C1217.72 32.04 1217.96 32.008 1218.17 31.944L1218.14 33.032C1217.81 33.1067 1217.49 33.144 1217.18 33.144ZM1219.37 23.288V21.832H1220.97V23.288H1219.37ZM1219.53 33V25.224H1220.82V33H1219.53ZM1223.25 33V25.224H1224.51V26.552C1224.77 26.0613 1225.13 25.6933 1225.6 25.448C1226.07 25.2027 1226.6 25.08 1227.18 25.08C1229.03 25.08 1229.95 26.104 1229.95 28.152V33H1228.66V28.232C1228.66 27.5067 1228.51 26.9787 1228.22 26.648C1227.95 26.3067 1227.5 26.136 1226.88 26.136C1226.16 26.136 1225.59 26.36 1225.17 26.808C1224.75 27.2453 1224.54 27.832 1224.54 28.568V33H1223.25ZM1235.85 33.144C1234.62 33.144 1233.65 32.7867 1232.93 32.072C1232.22 31.3467 1231.86 30.3653 1231.86 29.128C1231.86 28.328 1232.02 27.624 1232.34 27.016C1232.66 26.3973 1233.1 25.9227 1233.65 25.592C1234.22 25.2507 1234.87 25.08 1235.61 25.08C1236.66 25.08 1237.49 25.4213 1238.09 26.104C1238.68 26.776 1238.98 27.704 1238.98 28.888V29.384H1233.12C1233.17 30.2693 1233.42 30.9467 1233.89 31.416C1234.36 31.8747 1235.01 32.104 1235.85 32.104C1236.31 32.104 1236.76 32.0347 1237.19 31.896C1237.62 31.7467 1238.02 31.5067 1238.41 31.176L1238.85 32.088C1238.5 32.4187 1238.05 32.68 1237.51 32.872C1236.97 33.0533 1236.41 33.144 1235.85 33.144ZM1235.64 26.04C1234.9 26.04 1234.32 26.2693 1233.89 26.728C1233.47 27.1867 1233.22 27.7893 1233.14 28.536H1237.86C1237.83 27.7467 1237.62 27.1333 1237.24 26.696C1236.86 26.2587 1236.33 26.04 1235.64 26.04ZM1243.48 33.144C1242.87 33.144 1242.3 33.0587 1241.75 32.888C1241.21 32.7173 1240.76 32.4773 1240.41 32.168L1240.82 31.256C1241.21 31.5653 1241.63 31.7947 1242.09 31.944C1242.56 32.0827 1243.03 32.152 1243.51 32.152C1244.12 32.152 1244.58 32.04 1244.89 31.816C1245.2 31.592 1245.35 31.288 1245.35 30.904C1245.35 30.6053 1245.25 30.3707 1245.05 30.2C1244.85 30.0187 1244.53 29.88 1244.09 29.784L1242.63 29.464C1241.31 29.176 1240.65 28.4933 1240.65 27.416C1240.65 26.712 1240.93 26.1467 1241.48 25.72C1242.05 25.2933 1242.78 25.08 1243.69 25.08C1244.22 25.08 1244.73 25.1653 1245.21 25.336C1245.7 25.496 1246.1 25.736 1246.42 26.056L1245.99 26.968C1245.68 26.68 1245.32 26.4613 1244.9 26.312C1244.5 26.152 1244.09 26.072 1243.69 26.072C1243.09 26.072 1242.64 26.1893 1242.33 26.424C1242.02 26.6587 1241.86 26.968 1241.86 27.352C1241.86 27.9493 1242.26 28.3333 1243.05 28.504L1244.5 28.808C1245.19 28.9573 1245.7 29.1973 1246.06 29.528C1246.41 29.848 1246.58 30.2853 1246.58 30.84C1246.58 31.5547 1246.3 32.12 1245.74 32.536C1245.17 32.9413 1244.42 33.144 1243.48 33.144Z" fill="#001424"/>
<path fill-rule="evenodd" clip-rule="evenodd" d="M1288.47 36V20H1280V36L1284.24 31.2941L1288.47 36ZM1281 33.394L1284.24 29.7993L1287.47 33.394V21H1281V33.394Z" fill="#001424"/>
<path d="M1299.42 33V21.72H1300.53L1304.86 29.864L1309.17 21.72H1310.27V33H1309.06V24.184L1305.3 31.256H1304.43L1300.62 24.2V33H1299.42ZM1313.8 35.88L1315.13 32.872L1311.85 25.224H1313.26L1315.83 31.528L1318.42 25.224H1319.78L1315.16 35.88H1313.8ZM1327.68 33.144C1327.15 33.144 1326.67 33.0427 1326.24 32.84C1325.82 32.6267 1325.49 32.3387 1325.25 31.976C1325 31.6133 1324.88 31.208 1324.88 30.76C1324.88 30.1947 1325.02 29.7467 1325.31 29.416C1325.61 29.0853 1326.1 28.8507 1326.77 28.712C1327.45 28.5627 1328.38 28.488 1329.55 28.488H1330.06V27.992C1330.06 27.3307 1329.92 26.856 1329.65 26.568C1329.38 26.2693 1328.95 26.12 1328.35 26.12C1327.88 26.12 1327.43 26.1893 1326.99 26.328C1326.55 26.456 1326.11 26.6693 1325.65 26.968L1325.2 26.024C1325.6 25.736 1326.1 25.5067 1326.67 25.336C1327.26 25.1653 1327.82 25.08 1328.35 25.08C1329.35 25.08 1330.1 25.3253 1330.58 25.816C1331.07 26.3067 1331.31 27.0693 1331.31 28.104V33H1330.1V31.656C1329.89 32.1147 1329.58 32.4773 1329.15 32.744C1328.74 33.0107 1328.24 33.144 1327.68 33.144ZM1327.89 32.168C1328.53 32.168 1329.05 31.9493 1329.46 31.512C1329.86 31.064 1330.06 30.4987 1330.06 29.816V29.336H1329.57C1328.7 29.336 1328.02 29.3787 1327.52 29.464C1327.03 29.5387 1326.68 29.6773 1326.48 29.88C1326.29 30.072 1326.19 30.3387 1326.19 30.68C1326.19 31.1173 1326.34 31.4747 1326.64 31.752C1326.95 32.0293 1327.36 32.168 1327.89 32.168ZM1337.01 33.144C1336.23 33.144 1335.56 32.9787 1335 32.648C1334.43 32.3067 1333.99 31.832 1333.68 31.224C1333.39 30.6053 1333.24 29.8853 1333.24 29.064C1333.24 27.8267 1333.57 26.856 1334.24 26.152C1334.92 25.4373 1335.84 25.08 1337.01 25.08C1337.49 25.08 1337.97 25.1653 1338.44 25.336C1338.91 25.5067 1339.29 25.7467 1339.6 26.056L1339.16 27C1338.85 26.7013 1338.51 26.4827 1338.13 26.344C1337.77 26.2053 1337.42 26.136 1337.09 26.136C1336.28 26.136 1335.66 26.392 1335.22 26.904C1334.78 27.4053 1334.56 28.1307 1334.56 29.08C1334.56 30.008 1334.78 30.744 1335.22 31.288C1335.66 31.8213 1336.28 32.088 1337.09 32.088C1337.42 32.088 1337.77 32.0187 1338.13 31.88C1338.51 31.7413 1338.85 31.5173 1339.16 31.208L1339.6 32.152C1339.29 32.4613 1338.9 32.7067 1338.42 32.888C1337.95 33.0587 1337.48 33.144 1337.01 33.144ZM1344.26 33.144C1343.48 33.144 1342.81 32.9787 1342.25 32.648C1341.68 32.3067 1341.24 31.832 1340.93 31.224C1340.64 30.6053 1340.49 29.8853 1340.49 29.064C1340.49 27.8267 1340.82 26.856 1341.49 26.152C1342.17 25.4373 1343.09 25.08 1344.26 25.08C1344.74 25.08 1345.22 25.1653 1345.69 25.336C1346.16 25.5067 1346.54 25.7467 1346.85 26.056L1346.41 27C1346.1 26.7013 1345.76 26.4827 1345.38 26.344C1345.02 26.2053 1344.67 26.136 1344.34 26.136C1343.53 26.136 1342.91 26.392 1342.47 26.904C1342.03 27.4053 1341.81 28.1307 1341.81 29.08C1341.81 30.008 1342.03 30.744 1342.47 31.288C1342.91 31.8213 1343.53 32.088 1344.34 32.088C1344.67 32.088 1345.02 32.0187 1345.38 31.88C1345.76 31.7413 1346.1 31.5173 1346.41 31.208L1346.85 32.152C1346.54 32.4613 1346.15 32.7067 1345.67 32.888C1345.2 33.0587 1344.73 33.144 1344.26 33.144ZM1351.45 33.144C1350.69 33.144 1350.03 32.9787 1349.48 32.648C1348.93 32.3173 1348.49 31.8533 1348.18 31.256C1347.89 30.648 1347.74 29.9333 1347.74 29.112C1347.74 28.2907 1347.89 27.5813 1348.18 26.984C1348.49 26.376 1348.93 25.9067 1349.48 25.576C1350.03 25.2453 1350.69 25.08 1351.45 25.08C1352.19 25.08 1352.85 25.2453 1353.4 25.576C1353.97 25.9067 1354.4 26.376 1354.7 26.984C1355.01 27.5813 1355.16 28.2907 1355.16 29.112C1355.16 29.9333 1355.01 30.648 1354.7 31.256C1354.4 31.8533 1353.97 32.3173 1353.4 32.648C1352.85 32.9787 1352.19 33.144 1351.45 33.144ZM1351.45 32.104C1352.17 32.104 1352.75 31.848 1353.19 31.336C1353.63 30.8133 1353.85 30.072 1353.85 29.112C1353.85 28.1413 1353.63 27.4 1353.19 26.888C1352.75 26.376 1352.17 26.12 1351.45 26.12C1350.71 26.12 1350.13 26.376 1349.69 26.888C1349.26 27.4 1349.05 28.1413 1349.05 29.112C1349.05 30.072 1349.26 30.8133 1349.69 31.336C1350.13 31.848 1350.71 32.104 1351.45 32.104ZM1359.86 33.144C1357.99 33.144 1357.06 32.1147 1357.06 30.056V25.224H1358.35V30.04C1358.35 30.7333 1358.49 31.2453 1358.77 31.576C1359.06 31.9067 1359.51 32.072 1360.11 32.072C1360.78 32.072 1361.31 31.8533 1361.73 31.416C1362.15 30.968 1362.35 30.376 1362.35 29.64V25.224H1363.65V33H1362.39V31.688C1362.14 32.1573 1361.79 32.52 1361.35 32.776C1360.91 33.0213 1360.41 33.144 1359.86 33.144ZM1366.08 33V25.224H1367.34V26.552C1367.6 26.0613 1367.96 25.6933 1368.43 25.448C1368.9 25.2027 1369.42 25.08 1370.01 25.08C1371.86 25.08 1372.78 26.104 1372.78 28.152V33H1371.48V28.232C1371.48 27.5067 1371.34 26.9787 1371.05 26.648C1370.77 26.3067 1370.33 26.136 1369.71 26.136C1368.99 26.136 1368.42 26.36 1368 26.808C1367.58 27.2453 1367.37 27.832 1367.37 28.568V33H1366.08ZM1378.29 33.144C1377.37 33.144 1376.68 32.904 1376.23 32.424C1375.77 31.9333 1375.54 31.2293 1375.54 30.312V26.232H1374.02V25.224H1375.54V22.84H1376.83V25.224H1379.3V26.232H1376.83V30.184C1376.83 30.792 1376.96 31.256 1377.22 31.576C1377.47 31.8853 1377.89 32.04 1378.47 32.04C1378.64 32.04 1378.81 32.0187 1378.98 31.976C1379.15 31.9333 1379.3 31.8907 1379.44 31.848L1379.67 32.84C1379.53 32.9147 1379.32 32.984 1379.06 33.048C1378.79 33.112 1378.53 33.144 1378.29 33.144Z" fill="#001424"/>
<g clip-path="url(#clip0)">
<path d="M60 97.2659V64.4375H66.5929V78.6066L80.0395 64.4375H88.2469L72.835 80.0751L89.7715 97.2659H80.822L66.5929 82.3224V97.2659H60Z" fill="#14487F"/>
<path d="M163.605 97.2659V64.4375H170.284V91.8679H185.3V97.2659H163.605Z" fill="#14487F"/>
<path d="M190.801 97.2659V64.4375H197.479V91.8679H212.5V97.2659H190.801Z" fill="#14487F"/>
<path d="M104.058 69.4036H100.348V80.6357H103.837C108.407 80.6357 110.691 78.7637 110.691 75.0197C110.691 71.2756 108.48 69.4036 104.058 69.4036ZM94.0156 97.2701V64.4462H104.93C107.183 64.3896 109.42 64.8321 111.478 65.7412C113.223 66.5283 114.696 67.8048 115.715 69.4125C116.736 71.1243 117.25 73.0858 117.199 75.0731C117.237 76.9487 116.704 78.7923 115.67 80.3642C114.668 81.8595 113.321 83.0967 111.739 83.9732L120.473 97.279H112.998L106.01 85.6153H100.348V97.279L94.0156 97.2701Z" fill="#14487F"/>
<path d="M123.141 75.1485L149.872 65.9724C147.632 64.4806 145.078 63.5157 142.403 63.1516C139.729 62.7876 137.005 63.034 134.442 63.872C131.801 64.7508 129.404 66.228 127.442 68.1858C125.48 70.1436 124.007 72.5278 123.141 75.1485Z" fill="#43B049"/>
<path d="M122.363 79.0469L143.981 97.5548C143.981 97.5548 135.027 100.06 127.791 93.1848C125.868 91.3854 124.38 89.1793 123.439 86.7313C122.497 84.2833 122.126 81.6564 122.354 79.0469" fill="#14487F"/>
<path d="M152.687 68.3086L147.223 96.4866C149.819 95.3362 152.098 93.5831 153.864 91.3759C155.63 89.1687 156.832 86.5726 157.368 83.8077C157.905 81.0428 157.759 78.1907 156.944 75.4934C156.129 72.796 154.669 70.3329 152.687 68.313" fill="#14487F"/>
</g>
<path d="M1292 80.5C1292 66.969 1302.97 56 1316.5 56H1355.5C1369.03 56 1380 66.969 1380 80.5C1380 94.031 1369.03 105 1355.5 105H1316.5C1302.97 105 1292 94.031 1292 80.5Z" fill="#001424"/>
<line x1="1327.15" y1="88.6464" x2="1344.15" y2="71.6464" stroke="white"/>
<line y1="-0.5" x2="24.0416" y2="-0.5" transform="matrix(-0.707107 -0.707107 -0.707107 0.707107 1344.5 89)" stroke="white"/>
<defs>
<clipPath id="clip0">
<rect width="152.5" height="35" fill="white" transform="translate(60 63)"/>
</clipPath>
</defs>
</svg>
